<svg width="18" height="18" viewBox="0 0 18 18" fill="none" xmlns="http://www.w3.org/2000/svg">
<path fill-rule="evenodd" clip-rule="evenodd" d="M9 0L3.47009 5.53171L5.5065 7.56293L9 4.06829L12.4935 7.56878L14.5299 5.53171L9 0ZM15.9636 6.96585L13.9272 8.99707L15.9636 11.0341L18 9.00293L15.9636 6.96585ZM2.03641 6.96585L0 8.99707L2.03641 11.0341L4.07282 9.00293L2.03641 6.96585ZM9 6.93659L7.47854 8.46439L6.94018 9.00293V9.00878L9 11.0693L11.0657 9.00293L9 6.93659ZM12.4993 10.4371L9 13.9317L5.5065 10.4371L3.47009 12.4683L9 18L14.5358 12.4683L12.4993 10.4371Z" fill="#0E2549"/>
</svg>
