<svg width="12" height="12" viewBox="0 0 12 12" fill="none" xmlns="http://www.w3.org/2000/svg">
<path d="M4.98333 2.5V2.35H4.83333H1.33333C1.13884 2.35 0.952315 2.42726 0.814788 2.56479C0.677262 2.70232 0.6 2.88884 0.6 3.08333V10.6667C0.6 10.8612 0.677262 11.0477 0.814788 11.1852C0.952315 11.3227 1.13884 11.4 1.33333 11.4H8.91667C9.11116 11.4 9.29768 11.3227 9.43521 11.1852C9.57274 11.0477 9.65 10.8612 9.65 10.6667V7.16667V7.01667H9.5H8.33333H8.18333V7.16667V9.93333H2.06667V3.81667H4.83333H4.98333V3.66667V2.5ZM11.4 0.75V0.6H11.25H6.58333H6.43333V0.75V1.91667V2.06667H6.58333H8.89582L4.60651 6.35652L4.50046 6.46259L4.60652 6.56865L5.43135 7.39348L5.53742 7.49956L5.64349 7.39348L9.93333 3.10308V5.41667V5.56667H10.0833H11.25H11.4V5.41667V0.75Z" fill="#FFC700" stroke="#FFC700" stroke-width="0.3"/>
</svg>
