<svg width="44" height="38" viewBox="0 0 44 38" fill="none" xmlns="http://www.w3.org/2000/svg">
<path d="M42.6484 25.339C40.8752 22.4436 39.1514 19.5113 37.4524 16.5707C37.1143 15.9826 36.7349 15.744 36.0586 15.7687C34.8379 15.8181 33.6132 15.7852 32.3884 15.7852C32.3472 15.6824 32.3018 15.5836 32.2606 15.4849C32.8915 14.4321 33.5018 13.3669 34.1616 12.3305C34.4833 11.8246 34.4957 11.3969 34.1864 10.8787C32.3595 7.8312 30.5409 4.78369 28.7553 1.7115C28.4502 1.18096 28.0914 1 27.5017 1C23.9098 1.02056 20.318 1.02056 16.7262 1.00411C16.1365 1 15.7736 1.16862 15.4643 1.70738C13.8684 4.4958 12.2972 7.30066 10.5611 10.0027C9.81053 11.1666 9.7528 12.0632 10.5693 13.153C11.126 13.8974 11.5178 14.7611 12.0992 15.7811C10.5776 15.7811 9.3198 15.8222 8.06203 15.7687C7.35274 15.7358 6.91974 15.9785 6.56922 16.5871C4.82072 19.6059 3.05161 22.6164 1.26187 25.6104C0.915471 26.1862 0.911347 26.6345 1.25775 27.2103C3.05985 30.2002 4.84134 33.2025 6.58159 36.2294C6.93211 36.8381 7.34037 36.9862 7.99193 36.982C11.3363 36.9574 14.6849 36.9245 18.0252 36.9985C19.1262 37.0232 19.7943 36.7517 20.2603 35.7071C20.6974 34.7201 21.3572 33.8358 22.017 32.7377C22.8088 34.0456 23.5098 35.1354 24.1325 36.2623C24.4253 36.797 24.7758 36.9862 25.3779 36.982C28.9698 36.9574 32.5616 36.9615 36.1534 36.9779C36.7431 36.982 37.1019 36.8134 37.4112 36.2747C39.1267 33.3094 40.8628 30.3524 42.6526 27.4282C43.1186 26.6674 43.1144 26.0998 42.6484 25.339ZM35.2256 17.2123C34.8462 17.9073 34.607 18.3885 34.3348 18.8491C33.1142 20.9219 31.9018 22.9988 30.6317 25.0429C30.442 25.3513 29.9842 25.6762 29.6419 25.6844C26.7676 25.7338 23.8933 25.7091 21.019 25.7009C20.8747 25.7009 20.7304 25.6392 20.3881 25.5611C21.0644 24.4547 21.6459 23.4183 22.3222 22.4436C22.4624 22.2421 22.9284 22.1969 23.25 22.1928C24.7016 22.164 26.1573 22.2215 27.6048 22.1475C27.98 22.127 28.4625 21.835 28.6687 21.5183C29.4522 20.3379 30.1038 19.0712 30.8832 17.8868C31.0976 17.566 31.5801 17.2781 31.9636 17.2411C32.9616 17.1547 33.9719 17.2123 35.2256 17.2123ZM27.9141 3.07692C28.5161 4.0434 29.0729 4.90707 29.5966 5.7913C30.6069 7.48985 31.6255 9.18839 32.5698 10.924C32.7554 11.2571 32.8008 11.8575 32.6235 12.1742C31.2379 14.6172 29.7821 17.0231 28.3429 19.4331C28.2398 19.61 28.0749 19.7498 27.8151 20.0459C26.8254 18.3803 25.9099 16.8504 24.9985 15.3163C24.3841 14.2799 23.749 13.2559 23.1923 12.1866C23.0356 11.8904 22.9737 11.3764 23.1263 11.1049C24.4954 8.65374 25.9223 6.23136 27.345 3.80898C27.4646 3.59923 27.6378 3.4265 27.9141 3.07692ZM12.9405 8.6743C14.0663 6.7619 15.2045 4.84949 16.3756 2.95765C16.5406 2.69032 16.9241 2.39421 17.2086 2.39009C20.153 2.34897 23.0975 2.36542 26.0377 2.37364C26.1532 2.37364 26.2645 2.43533 26.5326 2.51759C25.5222 4.25315 24.5738 5.87767 23.6253 7.49807C23.0768 8.43165 22.5531 9.38169 21.9552 10.2783C21.7572 10.5703 21.3531 10.9034 21.0397 10.9075C18.0994 10.9486 15.155 10.924 12.2147 10.9116C12.1322 10.9116 12.0456 10.8499 11.8147 10.7553C12.1982 10.0438 12.5446 9.34468 12.9405 8.6743ZM11.7157 12.3881C12.2188 12.3387 12.5075 12.2811 12.7962 12.2811C15.423 12.277 18.0499 12.2976 20.6768 12.2688C21.3819 12.2606 21.7861 12.5032 22.1366 13.1284C23.2871 15.1683 24.5119 17.167 25.6996 19.1864C25.9594 19.6264 26.1944 20.0829 26.5656 20.7615C25.1346 20.7615 23.9676 20.8027 22.8047 20.7327C22.5201 20.7122 22.1737 20.3749 22.0005 20.0953C21.2995 18.9725 20.6355 17.821 19.9963 16.6612C19.6499 16.0319 19.2252 15.7235 18.4582 15.7646C17.1303 15.8304 15.7983 15.8263 14.4704 15.7523C14.0952 15.7317 13.6251 15.4397 13.3982 15.1312C12.8127 14.3169 12.3384 13.4245 11.7157 12.3881ZM3.17532 25.047C4.52793 22.7315 5.88879 20.4202 7.23315 18.1006C7.5878 17.4919 8.00843 17.1753 8.77958 17.1917C11.3776 17.2411 13.9756 17.2082 16.5695 17.2164C16.8416 17.2164 17.1179 17.2493 17.6664 17.2863C17.1674 18.1911 16.7921 18.9149 16.3798 19.6182C15.3034 21.4566 14.2271 23.2909 13.1137 25.1004C12.9488 25.3719 12.5735 25.6803 12.2889 25.6844C9.35279 25.7256 6.41663 25.7091 3.48048 25.7009C3.33615 25.7009 3.19181 25.631 2.98562 25.5816C3.05985 25.3678 3.09284 25.195 3.17532 25.047ZM16.7756 35.6331C14.0539 35.6372 11.3363 35.6454 8.61463 35.6166C8.28472 35.6166 7.79399 35.4974 7.65378 35.267C6.05374 32.6431 4.50319 29.9863 2.84541 27.1774C3.30728 27.1239 3.59182 27.0622 3.87637 27.0622C6.56509 27.0581 9.25382 27.0375 11.9425 27.0869C12.3302 27.0951 12.8869 27.3336 13.0725 27.6421C14.5612 30.0891 15.9798 32.5814 17.419 35.0614C17.4767 35.1642 17.5014 35.2876 17.5963 35.5467C17.2499 35.5837 17.0107 35.6331 16.7756 35.6331ZM20.8541 31.8946C20.351 32.9064 19.7365 33.8605 19.0561 35.0203C18.5695 34.2389 18.1695 33.6343 17.8025 33.0092C16.6478 31.0351 15.489 29.0651 14.388 27.0622C14.2065 26.7291 14.1447 26.141 14.3179 25.8325C15.72 23.332 17.1963 20.8685 18.6479 18.3926C18.7262 18.2569 18.8087 18.1253 19.0066 17.7839C19.8025 19.1 20.4623 20.1364 21.0438 21.2139C21.1469 21.4072 21.0067 21.8021 20.8706 22.0447C20.1695 23.2785 19.4561 24.5041 18.6973 25.705C18.3922 26.1944 18.4004 26.5728 18.7056 27.0581C19.452 28.2672 20.1737 29.4928 20.8335 30.7472C20.9984 31.0597 21.0108 31.5862 20.8541 31.8946ZM31.4853 35.6331C29.6873 35.6372 27.8893 35.6619 26.0955 35.6125C25.7573 35.6043 25.2707 35.4069 25.1099 35.1437C23.5964 32.6637 22.1366 30.155 20.6644 27.6503C20.6067 27.5475 20.5902 27.42 20.5159 27.1691C20.8458 27.128 21.1263 27.0663 21.4108 27.0622C24.0748 27.0581 26.7388 27.0745 29.3986 27.0499C30.0378 27.0416 30.4007 27.2555 30.7183 27.8148C31.9595 29.9904 33.2585 32.1291 34.5328 34.2841C34.7472 34.6419 34.9369 35.0203 35.2709 35.6331H31.4853ZM41.403 26.7702C39.8731 29.4476 38.2937 32.092 36.6359 34.901C36.3349 34.5144 36.0875 34.2594 35.9143 33.9633C34.574 31.7054 33.2585 29.4352 31.9018 27.1856C31.5554 26.6098 31.5513 26.1697 31.9142 25.5816C33.2214 23.4512 34.4668 21.2797 35.7452 19.1329C35.9596 18.7628 36.2153 18.4173 36.5906 17.8539C37.4194 19.2645 38.137 20.4819 38.8545 21.6951C39.6587 23.0482 40.4834 24.3931 41.2546 25.7626C41.4154 26.0464 41.5391 26.5358 41.403 26.7702Z" fill="#E7E7E7" stroke="#E7E7E7"/>
<path d="M35 35.9897H31.408C29.7021 35.994 27.9961 36.0199 26.294 35.9682C25.9732 35.9596 25.5115 35.7528 25.3589 35.4772C23.9229 32.8798 22.5377 30.2523 21.1409 27.6291C21.0861 27.5214 21.0704 27.3879 21 27.1252C21.313 27.0821 21.5791 27.0175 21.8491 27.0132C24.3767 27.0089 26.9044 27.0261 29.4282 27.0002C30.0347 26.9916 30.379 27.2156 30.6803 27.8014C31.858 30.08 33.0906 32.3199 34.2996 34.5769C34.5031 34.9517 34.6831 35.3479 35 35.9897Z" fill="#E7E7E7"/>
<path d="M27 20.9873C25.5546 20.9873 24.3757 21.0308 23.2011 20.9568C22.9136 20.9351 22.5637 20.5782 22.3888 20.2822C21.6806 19.0941 21.01 17.8755 20.3643 16.6482C20.0144 15.9824 19.5854 15.656 18.8106 15.6995C17.4693 15.7691 16.1239 15.7648 14.7826 15.6864C14.4035 15.6647 13.9286 15.3557 13.6995 15.0293C13.108 14.1676 12.629 13.2232 12 12.1264C12.5082 12.0742 12.7998 12.0133 13.0914 12.0133C15.7448 12.0089 18.3982 12.0307 21.0517 12.0002C21.764 11.9915 22.1722 12.2483 22.5262 12.9098C23.6884 15.0684 24.9256 17.1836 26.1252 19.3204C26.3877 19.7861 26.6251 20.2692 27 20.9873Z" fill="#E7E7E7"/>
<path d="M18 35.9049C17.6477 35.9437 17.4045 35.9955 17.1655 35.9955C14.3978 35.9998 11.6343 36.0084 8.86665 35.9782C8.53117 35.9782 8.03215 35.8532 7.88957 35.6117C6.26251 32.8602 4.68577 30.0743 3 27.1289C3.46967 27.0728 3.75902 27.0081 4.04836 27.0081C6.7825 27.0038 9.51663 26.9822 12.2508 27.034C12.645 27.0426 13.2111 27.2927 13.3998 27.6162C14.9136 30.1822 16.3562 32.7956 17.8197 35.396C17.8784 35.5038 17.9036 35.6332 18 35.9049Z" fill="#E7E7E7"/>
</svg>
