<svg width="25" height="25" viewBox="0 0 25 25" fill="none" xmlns="http://www.w3.org/2000/svg">
<path d="M12.3188 0.218262C5.51882 0.218262 0 5.72048 0 12.5C0 19.2795 5.51882 24.7817 12.3188 24.7817C19.1188 24.7817 24.6376 19.2795 24.6376 12.5C24.6376 5.72048 19.1188 0.218262 12.3188 0.218262ZM18.0347 8.56984C17.8499 10.5104 17.0492 15.2265 16.6427 17.4004C16.4702 18.3215 16.1253 18.6286 15.805 18.6654C15.0905 18.7268 14.5485 18.1987 13.8587 17.7443C12.7746 17.032 12.1587 16.5898 11.1116 15.902C9.892 15.1037 10.6804 14.6616 11.3826 13.9492C11.5674 13.765 14.721 10.9034 14.7826 10.6455C14.7911 10.6064 14.79 10.5658 14.7792 10.5273C14.7685 10.4888 14.7485 10.4535 14.721 10.4244C14.6471 10.363 14.5485 10.3875 14.4623 10.3998C14.3514 10.4244 12.6268 11.5666 9.26374 13.8264C8.77099 14.158 8.32751 14.33 7.93331 14.3177C7.48983 14.3054 6.65215 14.0721 6.0239 13.8633C5.24781 13.6176 4.64419 13.4825 4.69346 13.0527C4.7181 12.8316 5.02607 12.6105 5.60506 12.3772C9.20215 10.8174 11.592 9.78574 12.7869 9.29447C16.2115 7.86979 16.9137 7.62415 17.3818 7.62415C17.4804 7.62415 17.7144 7.64871 17.8623 7.77153C17.9855 7.86978 18.0224 8.00488 18.0347 8.10314C18.0224 8.17683 18.047 8.3979 18.0347 8.56984Z" fill="white"/>
</svg>
