<svg width="29" height="24" viewBox="0 0 29 24" fill="none" xmlns="http://www.w3.org/2000/svg">
<path d="M28.6831 3.47972C28.3042 4.06096 27.8756 4.60069 27.3974 5.09889C26.9192 5.5971 26.4004 6.0584 25.841 6.4828C25.85 6.61197 25.8546 6.73652 25.8546 6.85646C25.8546 6.9764 25.8591 7.10556 25.8681 7.24395C25.8681 8.40644 25.7463 9.55508 25.5027 10.6899C25.2591 11.8247 24.9072 12.9226 24.447 13.9836C23.7794 15.5243 22.9448 16.899 21.9433 18.1076C20.9418 19.3163 19.8094 20.345 18.5463 21.1938C17.2831 22.0426 15.8982 22.6838 14.3914 23.1174C12.8846 23.551 11.3147 23.7724 9.68161 23.7817C8.12973 23.7817 6.61845 23.5649 5.14778 23.1312C3.6771 22.6976 2.28311 22.0426 0.96582 21.1661C1.40793 21.2214 1.85905 21.2491 2.3192 21.2491C3.60943 21.2491 4.85454 21.0369 6.05454 20.6125C7.25455 20.1881 8.36432 19.57 9.38387 18.7581C8.77936 18.7489 8.1974 18.6474 7.638 18.4536C7.07861 18.2599 6.56883 17.9831 6.10868 17.6233C5.64853 17.2635 5.24251 16.8391 4.89063 16.3501C4.53875 15.8611 4.26808 15.3214 4.0786 14.7309C4.25906 14.7586 4.435 14.7816 4.60642 14.8001C4.77785 14.8186 4.9583 14.8278 5.14778 14.8278C5.65304 14.8278 6.14928 14.7586 6.6365 14.6202C5.96883 14.4818 5.35981 14.2373 4.80943 13.8867C4.25906 13.5361 3.77635 13.1117 3.36131 12.6135C2.94627 12.1153 2.63048 11.5479 2.41394 10.9113C2.1974 10.2747 2.08462 9.61044 2.0756 8.91848V8.84929C2.86958 9.31059 3.73124 9.55508 4.66056 9.58276C4.26357 9.30598 3.91169 8.99229 3.60492 8.6417C3.29815 8.29111 3.03199 7.90362 2.80642 7.47922C2.58086 7.05482 2.41394 6.61658 2.30567 6.16451C2.1974 5.71243 2.13875 5.23729 2.12973 4.73908C2.12973 4.22242 2.19289 3.7196 2.3192 3.23062C2.44552 2.74163 2.63951 2.27111 2.90116 1.81903C3.62296 2.73241 4.42597 3.54892 5.31018 4.26855C6.19439 4.98818 7.13274 5.61094 8.12522 6.13683C9.1177 6.66271 10.1643 7.06866 11.2651 7.35467C12.3658 7.64068 13.4846 7.82058 14.6215 7.89439C14.5673 7.68219 14.5312 7.46538 14.5132 7.24395C14.4952 7.02253 14.4816 6.79649 14.4726 6.56584C14.4726 5.76317 14.6215 5.01125 14.9192 4.31007C15.217 3.60888 15.623 2.99074 16.1373 2.45563C16.6515 1.92052 17.2515 1.50534 17.9373 1.21011C18.623 0.914874 19.3628 0.762644 20.1568 0.753418C20.9508 0.753418 21.7042 0.910261 22.417 1.22395C23.1297 1.53763 23.7613 1.99432 24.3117 2.59402C24.9523 2.46485 25.5703 2.28494 26.1658 2.05429C26.7613 1.82364 27.3433 1.53302 27.9117 1.18243C27.7042 1.85593 27.3884 2.46947 26.9643 3.02303C26.5403 3.57659 26.026 4.03328 25.4215 4.3931C26.5583 4.25471 27.6455 3.95025 28.6831 3.47972Z" fill="white"/>
</svg>
