<svg width="1204" height="772" viewBox="0 0 1204 772" fill="none" xmlns="http://www.w3.org/2000/svg">
<g opacity="0.25">
<path d="M774 0V85.7778H1057.2L688 454.022L503.401 269.9C495.337 261.859 473 239.577 473 239.577C473 239.577 450.663 261.859 442.599 269.9L0 711.355L60.802 772L473 360.867L657.599 544.989C665.663 553.03 688 575.312 688 575.312C688 575.312 710.337 553.03 718.401 544.989L1118 146.423V428.889H1204V0L774 0Z" fill="black"/>
<path d="M774 0V85.7778H1057.2L688 454.022L503.401 269.9C495.337 261.859 473 239.577 473 239.577C473 239.577 450.663 261.859 442.599 269.9L0 711.355L60.802 772L473 360.867L657.599 544.989C665.663 553.03 688 575.312 688 575.312C688 575.312 710.337 553.03 718.401 544.989L1118 146.423V428.889H1204V0L774 0Z" stroke="black"/>
</g>
</svg>
